<?xml version="1.0" encoding="UTF-8" standalone="no"?>
<!-- Generator: Adobe Illustrator 15.0.2, SVG Export Plug-In . SVG Version: 6.00 Build 0)  -->

<svg
   xmlns:dc="http://purl.org/dc/elements/1.1/"
   xmlns:cc="http://creativecommons.org/ns#"
   xmlns:rdf="http://www.w3.org/1999/02/22-rdf-syntax-ns#"
   xmlns:svg="http://www.w3.org/2000/svg"
   xmlns="http://www.w3.org/2000/svg"
   xmlns:sodipodi="http://sodipodi.sourceforge.net/DTD/sodipodi-0.dtd"
   xmlns:inkscape="http://www.inkscape.org/namespaces/inkscape"
   version="1.1"
   id="Layer_3"
   x="0px"
   y="0px"
   width="700.39539"
   height="465.78281"
   viewBox="0 0 700.39535 465.78281"
   enable-background="new 0 0 595.28 453.543"
   xml:space="preserve"
   inkscape:version="0.48.5 r10040"
   sodipodi:docname="logo_33.svg"><metadata
   id="metadata21"><rdf:RDF><cc:Work
       rdf:about=""><dc:format>image/svg+xml</dc:format><dc:type
         rdf:resource="http://purl.org/dc/dcmitype/StillImage" /><dc:title></dc:title></cc:Work></rdf:RDF></metadata><defs
   id="defs19" /><sodipodi:namedview
   pagecolor="#ffffff"
   bordercolor="#666666"
   borderopacity="1"
   objecttolerance="10"
   gridtolerance="10"
   guidetolerance="10"
   inkscape:pageopacity="0"
   inkscape:pageshadow="2"
   inkscape:window-width="1920"
   inkscape:window-height="1017"
   id="namedview17"
   showgrid="false"
   fit-margin-right="36"
   fit-margin-top="36"
   fit-margin-left="36"
   fit-margin-bottom="36"
   showguides="true"
   inkscape:guide-bbox="true"
   inkscape:zoom="1.3589069"
   inkscape:cx="124.87393"
   inkscape:cy="194.76804"
   inkscape:window-x="-8"
   inkscape:window-y="32"
   inkscape:window-maximized="1"
   inkscape:current-layer="Layer_3" />
<path
   d="M 138.24397,267.95"
   id="path3"
   inkscape:connector-curvature="0"
   style="fill:#009fe3" />
<path
   d="M 485.50197,49.861 C 467.47297,40.99 447.18897,36 425.73797,36 c -66.533,0.002 -121.867,47.932 -133.37,111.146 0,0 11.868,-2.606 31.965,-16.396 22.902,-15.712 31.834,-36.442 67.834,-43.442 -30.375,12.947 -36.334,33.333 -34.873,54.428 11.338,-24.875 36.418,-42.165 65.539,-42.165 39.766,0 72,32.235 72,72 0,39.205 -31.339,72.692 -70.334,71.96 -13.403,-0.252 -43.044,-13.399 -74.213,-30.578 -30.024,-16.548 -88.918,-51.731 -119.237,-67.736 -17.677,-9.332 -38.139,-13.717 -59.477,-13.717 -74.87299,0 -135.57199,60.697 -135.57199,135.572 0,53.422 30.905,99.619 75.80799,121.708 18.03,8.871 38.313,13.861 59.765,13.861 66.533,-0.002 121.867,-47.931 133.37,-111.144 0,0 -11.868,2.605 -31.966,16.395 -22.901,15.713 -31.834,36.443 -67.834,43.443 30.376,-12.947 36.334,-33.334 34.873,-54.428 -11.338,24.875 -36.417,42.164 -65.539,42.164 -39.765,0 -72,-32.234 -72,-72 0,-39.205 31.339,-72.691 70.334,-71.959 13.403,0.252 43.045,13.399 74.214,30.578 30.025,16.548 88.919,51.731 119.237,67.736 17.677,9.332 38.139,13.717 59.477,13.717 74.873,0 135.572,-60.697 135.572,-135.572 0,-53.423 -30.906,-99.621 -75.809,-121.71 z"
   id="path5"
   inkscape:connector-curvature="0"
   style="fill:#239623" />

<g
   id="g3031"
   transform="translate(15.453592,-12.588934)"><path
     d="m 305.01114,340.49185 c -2e-5,-2.08 -0.72024,-3.82011 -2.16065,-5.22034 -1.44044,-1.40006 -3.20069,-2.10013 -5.28076,-2.10021 -2.08009,8e-5 -3.8202,0.70015 -5.22033,2.10021 -1.40016,1.40023 -2.10023,3.14034 -2.10022,5.22034 -1e-5,2.08016 0.70006,3.82027 2.10022,5.22034 1.40013,1.40022 3.14024,2.10029 5.22033,2.10022 2.08007,7e-5 3.84032,-0.7 5.28076,-2.10022 1.44041,-1.40007 2.16063,-3.14018 2.16065,-5.22034 z m -2.16065,78.7207 0,-62.99926 -10.44067,0 0,62.99926 z"
     style="font-size:120px;font-style:normal;font-variant:normal;font-weight:normal;font-stretch:normal;line-height:125%;letter-spacing:0px;word-spacing:0px;fill:#000000;fill-opacity:1;stroke:none;font-family:Florencesans;-inkscape-font-specification:Florencesans"
     id="path3005"
     inkscape:connector-curvature="0" /><path
     d="m 373.02383,419.21255 0,-37.80029 c -6e-5,-7.19966 -2.35967,-13.47895 -7.07885,-18.83789 -4.88042,-5.60052 -10.92046,-8.40081 -18.12012,-8.40088 -7.75882,7e-5 -14.07839,3.0799 -18.95874,9.2395 l 0,-7.1997 -10.44067,0 0,62.99926 10.44067,0 0,-37.80029 c -2e-5,-4.63863 1.63999,-8.59797 4.92004,-11.87805 3.28001,-3.27998 7.23935,-4.91999 11.87806,-4.92004 4.64107,5e-5 8.60164,1.64006 11.88171,4.92004 3.27998,3.28008 4.91999,7.23942 4.92004,11.87805 l 0,37.80029 z"
     style="font-size:120px;font-style:normal;font-variant:normal;font-weight:normal;font-stretch:normal;line-height:125%;letter-spacing:0px;word-spacing:0px;fill:#000000;fill-opacity:1;stroke:none;font-family:Florencesans;-inkscape-font-specification:Florencesans"
     id="path3007"
     inkscape:connector-curvature="0" /><path
     sodipodi:nodetypes="cccsccccccccccccccc"
     d="m 415.04654,335.21109 c -2.31937,-1.35978 -5.00003,-2.03971 -8.04199,-2.03979 -4.39944,8e-5 -8.11892,1.52108 -11.15845,4.56298 -3.12013,3.03963 -4.68019,6.75911 -4.68018,11.15845 l 0,13.68164 -6.24023,0 0,10.43701 6.24023,0 0,46.21356 10.56153,0 0,-46.21356 10.43701,0 0,-10.43701 -10.43701,0 0,-13.68164 c -2e-5,-1.44036 0.51999,-2.70073 1.56006,-3.78113 1.04001,-1.08024 2.27902,-1.6204 3.71704,-1.62048 1.12057,8e-5 2.2009,0.40047 3.24096,1.20117 z"
     style="font-size:120px;font-style:normal;font-variant:normal;font-weight:normal;font-stretch:normal;line-height:125%;letter-spacing:0px;word-spacing:0px;fill:#000000;fill-opacity:1;stroke:none;font-family:Florencesans;-inkscape-font-specification:Florencesans"
     id="path3009"
     inkscape:connector-curvature="0" /><path
     d="m 439.54239,340.49185 c -2e-5,-2.08 -0.72024,-3.82011 -2.16065,-5.22034 -1.44044,-1.40006 -3.20069,-2.10013 -5.28076,-2.10021 -2.08009,8e-5 -3.8202,0.70015 -5.22033,2.10021 -1.40016,1.40023 -2.10023,3.14034 -2.10022,5.22034 -1e-5,2.08016 0.70006,3.82027 2.10022,5.22034 1.40013,1.40022 3.14024,2.10029 5.22033,2.10022 2.08007,7e-5 3.84032,-0.7 5.28076,-2.10022 1.44041,-1.40007 2.16063,-3.14018 2.16065,-5.22034 z m -2.16065,78.7207 0,-62.99926 -10.44067,0 0,62.99926 z"
     style="font-size:120px;font-style:normal;font-variant:normal;font-weight:normal;font-stretch:normal;line-height:125%;letter-spacing:0px;word-spacing:0px;fill:#000000;fill-opacity:1;stroke:none;font-family:Florencesans;-inkscape-font-specification:Florencesans"
     id="path3011"
     inkscape:connector-curvature="0" /><path
     d="m 507.55508,419.21255 0,-37.80029 c -6e-5,-7.19966 -2.35967,-13.47895 -7.07885,-18.83789 -4.88042,-5.60052 -10.92046,-8.40081 -18.12012,-8.40088 -7.75882,7e-5 -14.07839,3.0799 -18.95874,9.2395 l 0,-7.1997 -10.44067,0 0,62.99926 10.44067,0 0,-37.80029 c -2e-5,-4.63863 1.63999,-8.59797 4.92004,-11.87805 3.28001,-3.27998 7.23935,-4.91999 11.87806,-4.92004 4.64107,5e-5 8.60164,1.64006 11.88171,4.92004 3.27998,3.28008 4.91999,7.23942 4.92004,11.87805 l 0,37.80029 z"
     style="font-size:120px;font-style:normal;font-variant:normal;font-weight:normal;font-stretch:normal;line-height:125%;letter-spacing:0px;word-spacing:0px;fill:#000000;fill-opacity:1;stroke:none;font-family:Florencesans;-inkscape-font-specification:Florencesans"
     id="path3013"
     inkscape:connector-curvature="0" /><path
     d="m 534.69864,340.49185 c -2e-5,-2.08 -0.72024,-3.82011 -2.16065,-5.22034 -1.44044,-1.40006 -3.20069,-2.10013 -5.28076,-2.10021 -2.08009,8e-5 -3.8202,0.70015 -5.22033,2.10021 -1.40016,1.40023 -2.10023,3.14034 -2.10022,5.22034 -10e-6,2.08016 0.70006,3.82027 2.10022,5.22034 1.40013,1.40022 3.14024,2.10029 5.22033,2.10022 2.08007,7e-5 3.84032,-0.7 5.28076,-2.10022 1.44041,-1.40007 2.16063,-3.14018 2.16065,-5.22034 z m -2.16065,78.7207 0,-62.99926 -10.44067,0 0,62.99926 z"
     style="font-size:120px;font-style:normal;font-variant:normal;font-weight:normal;font-stretch:normal;line-height:125%;letter-spacing:0px;word-spacing:0px;fill:#000000;fill-opacity:1;stroke:none;font-family:Florencesans;-inkscape-font-specification:Florencesans"
     id="path3015"
     inkscape:connector-curvature="0" /><path
     sodipodi:nodetypes="ccccccccccccc"
     d="m 580.15274,366.77115 0,-10.55786 -12.60132,0 0,-14.64112 -10.55786,0 0,14.64112 -12.60132,0 0,10.55786 12.60132,0 0,52.45379 10.55786,0 0,-52.45379 z"
     style="font-size:120px;font-style:normal;font-variant:normal;font-weight:normal;font-stretch:normal;line-height:125%;letter-spacing:0px;word-spacing:0px;fill:#000000;fill-opacity:1;stroke:none;font-family:Florencesans;-inkscape-font-specification:Florencesans"
     id="path3017"
     inkscape:connector-curvature="0" /><path
     d="m 648.9418,356.21329 -11.40014,0 -19.80103,49.07959 -19.80102,-49.07959 -11.2793,0 25.44067,62.99926 -3.95874,9.71924 c -0.72024,1.92138 -2.32058,2.88207 -4.80102,2.88208 -1.35988,-1e-5 -3.12014,-0.36012 -5.28076,-1.08032 l 0,10.55786 c 2.16062,0.72019 3.92088,1.0803 5.28076,1.08032 7.19968,-2e-5 12.11911,-3.32033 14.7583,-9.96093 z"
     style="font-size:120px;font-style:normal;font-variant:normal;font-weight:normal;font-stretch:normal;line-height:125%;letter-spacing:0px;word-spacing:0px;fill:#000000;fill-opacity:1;stroke:none;font-family:Florencesans;-inkscape-font-specification:Florencesans"
     id="path3019"
     inkscape:connector-curvature="0" /></g></svg>